<svg id="_x32_9_x2C__planet_x2C__space_x2C__moon_x2C__flag_x2C__mars" xmlns="http://www.w3.org/2000/svg" xmlns:xlink="http://www.w3.org/1999/xlink" width="842.47" height="638.59" viewBox="0 0 842.47 638.59">
  <defs>
    <linearGradient id="linear-gradient" x1="1" y1="1.065" x2="0" gradientUnits="objectBoundingBox">
      <stop offset="0" stop-color="#7961fc"/>
      <stop offset="0" stop-color="#8e54e9"/>
      <stop offset="1" stop-color="#538ffb"/>
    </linearGradient>
  </defs>
  <g id="Group_4" data-name="Group 4" transform="translate(0)">
    <path id="Path_12" data-name="Path 12" d="M420.255,507.468c45.548-21.132,93.833-46.424,140.913-73.577S654.235,377.5,695.294,348.6c51.57-36.241,95.584-71.935,124.38-102.592l-6.35-13.029-7.664-14.015-.219-.329A319.539,319.539,0,0,0,369.343,101.7l-.219.109A319.591,319.591,0,0,0,252.517,538.016l8.54,13.905,8.1,11.934c40.949-9.635,93.942-29.891,151.1-56.387m178.687-7.445c-97.227,56.168-192.154,98.869-272.41,125.147a321.61,321.61,0,0,0,170.913,70.84A319.409,319.409,0,0,0,844.309,326.263c-62.956,56.5-147.592,117.373-244.928,173.541ZM240.692,544.8a345.039,345.039,0,0,1-23.759-50.365c-11.5,13.686-19.818,26.059-24.635,36.679-4.818,10.84-5.8,19.489-2.409,25.4,8.1,14.015,31.423,16.533,64.708,10.4l-5.036-7.664-.109-.219Zm545.04-378.725a323.758,323.758,0,0,1,31.314,45.11l.766,1.2,7.774,14.343,4.051,8.212c21.9-25.84,31.424-47.3,23.321-61.314-3.394-5.912-11.5-9.416-23.431-10.621C818.031,161.918,803.25,162.9,785.732,166.079ZM568.067,445.716c-47.409,27.372-96.023,52.774-142.008,74.125-120.986,56.059-225.111,83.1-247.994,43.467-5.693-9.964-4.818-22.774,1.861-37.774,6.022-13.467,16.861-29.015,31.971-45.986-2.409-7.555-4.489-15.11-6.35-22.774-37.226,35.256-65.037,68.212-81.351,96.57-15.876,27.592-20.475,50.256-11.715,65.475,16.752,28.905,77.957,29.562,163.359,7.117,87.92-23.1,200.366-70.84,316.425-137.848l.328-.219c116.168-67.117,213.833-140.694,277.885-205.293,61.971-62.628,92.081-115.84,75.657-144.746l-.109-.219c-8.869-15.329-30.876-22.664-62.628-22.664-32.737-.109-75.219,7.555-124.271,22.117,5.694,5.475,11.168,11.058,16.533,16.971,22.117-4.489,40.949-6.131,55.511-4.708,16.423,1.642,28.029,7.336,33.832,17.3,22.883,39.745-52.555,116.388-161.607,193.031C661.79,389,615.476,418.344,568.067,445.716Z" transform="translate(-108.096 -59.024)" fill-rule="evenodd" fill="url(#linear-gradient)"/>
  </g>
</svg>
