<svg xmlns="http://www.w3.org/2000/svg" xmlns:xlink="http://www.w3.org/1999/xlink" width="683.385" height="247.632" viewBox="0 0 683.385 247.632">
  <defs>
    <linearGradient id="linear-gradient" x2="1.033" y2="1" gradientUnits="objectBoundingBox">
      <stop offset="0" stop-color="#538ffb"/>
      <stop offset="1" stop-color="#7961fc"/>
    </linearGradient>
  </defs>
  <g id="Group_6" data-name="Group 6" transform="translate(-153.092 -104.248)">
    <g id="Group_8" data-name="Group 8" transform="translate(503.607 181.749)">
      <g id="Group_1" data-name="Group 1" transform="translate(0 0)">
        <path id="Path_1" data-name="Path 1" d="M165.743,766.377l9.086,16.219h-22.29l-5.392-9.638h-16.9V782.6H108V722.9h38.976c15.37,0,27.852,11.209,27.852,25.05A23.955,23.955,0,0,1,165.743,766.377Zm-35.495-13.671h16.728a5.037,5.037,0,1,0,0-10.02H130.248Z" transform="translate(-108 -722.645)" fill="#fff"/>
        <path id="Path_2" data-name="Path 2" d="M305.038,762.683V782.6H282.79V762.683L260.5,722.9h22.29l11.124,19.913L305.038,722.9h22.29Z" transform="translate(-195.752 -722.645)" fill="#fff"/>
        <path id="Path_3" data-name="Path 3" d="M474.324,764.206c0,10.062-13.714,18.257-30.612,18.257-1.189,0-2.378-.042-3.524-.127a8.241,8.241,0,0,0-1.019-.085l-2.42-.255c-.382-.042-.722-.127-1.1-.17-.807-.127-1.571-.3-2.335-.425-.3-.085-.594-.127-.892-.212-.977-.212-1.911-.467-2.845-.764-.042,0-.127-.042-.17-.042A37.316,37.316,0,0,1,423.63,778a.889.889,0,0,1-.255-.17c-.807-.425-1.528-.849-2.25-1.316-.085-.042-.17-.127-.255-.17-4.84-3.227-7.77-7.473-7.77-12.143a8.459,8.459,0,0,1,.17-1.783h25.263v1.783c0,1.7,2.335,3.1,5.222,3.1s5.222-1.4,5.222-3.1a1.933,1.933,0,0,0-.212-.849c-.042-.085-.085-.127-.127-.212a2.233,2.233,0,0,0-.509-.594,4.87,4.87,0,0,0-1.189-.807c-.425-.212-16.431-4.67-16.474-4.713a32.778,32.778,0,0,1-9.68-4.416,2.514,2.514,0,0,1-.255-.17c-3.991-2.76-6.581-6.241-7.218-10.1a12.672,12.672,0,0,1-.17-1.783c0-3.779,1.911-7.3,5.222-10.19a28.526,28.526,0,0,1,8.279-4.925,41.831,41.831,0,0,1,5.222-1.7,48.006,48.006,0,0,1,5.774-1.061,48.911,48.911,0,0,1,6.156-.382c1.189,0,2.378.043,3.524.127a8.267,8.267,0,0,0,1.061.085l2.42.255c.382.042.722.127,1.1.17.807.127,1.571.3,2.335.425.3.085.594.127.892.212.977.212,1.911.467,2.845.764.085,0,.127.042.17.042a33.554,33.554,0,0,1,5.774,2.378,2.445,2.445,0,0,1,.3.17c.764.425,1.528.849,2.25,1.316a.886.886,0,0,1,.255.17,16.416,16.416,0,0,1,2.123,1.613c3.524,2.972,5.647,6.581,5.647,10.53a8.455,8.455,0,0,1-.17,1.783H449.062v-1.783c0-1.7-2.335-3.1-5.222-3.1s-5.222,1.4-5.222,3.1a1.932,1.932,0,0,0,.212.849c.043.085.085.127.127.212a2.234,2.234,0,0,0,.509.594,4.874,4.874,0,0,0,1.189.807c.425.212,16.431,4.671,16.474,4.713a33.85,33.85,0,0,1,9.68,4.373,2.533,2.533,0,0,1,.255.17C471.565,755.5,474.324,759.663,474.324,764.206Z" transform="translate(-283.561 -722.3)" fill="#fff"/>
        <path id="Path_4" data-name="Path 4" d="M567.3,742.713V722.8h66.829v19.913h-22.29V782.5h-22.29V742.713Z" transform="translate(-372.291 -722.588)" fill="#fff"/>
        <path id="Path_5" data-name="Path 5" d="M801.371,722.9v59.7h-22.29V762.683H756.79V782.6H734.5V722.9h22.29v19.913h22.29V722.9Z" transform="translate(-468.501 -722.645)" fill="#fff"/>
      </g>
      <g id="Group_2" data-name="Group 2" transform="translate(0 67.848)">
        <path id="Path_6" data-name="Path 6" d="M342.8,907.259V883.1h7.982a11.477,11.477,0,0,1,4.67.934,12.607,12.607,0,0,1,3.864,2.59,12.118,12.118,0,0,1,2.59,3.864,12.143,12.143,0,0,1,0,9.341,13.132,13.132,0,0,1-2.59,3.864,12.05,12.05,0,0,1-8.534,3.524H342.8Zm1.868-1.868h6.114a9.527,9.527,0,0,0,3.949-.807A10.583,10.583,0,0,0,358,902.376a10.829,10.829,0,0,0,2.208-3.269,10.253,10.253,0,0,0,.807-3.949,9.526,9.526,0,0,0-.807-3.949A10.584,10.584,0,0,0,358,887.94a10.83,10.83,0,0,0-3.269-2.208,10.254,10.254,0,0,0-3.949-.807h-6.114Z" transform="translate(-342.8 -882.676)" fill="#fff"/>
        <path id="Path_7" data-name="Path 7" d="M407.5,907.259V883.1h14.563v1.868H409.368v8.407h10.615v1.868H409.368V905.39h12.695v1.868Z" transform="translate(-380.03 -882.676)" fill="#fff"/>
        <path id="Path_8" data-name="Path 8" d="M468.4,907.265a12.012,12.012,0,0,1-3.694-.594,9.737,9.737,0,0,1-3.142-1.7,5.7,5.7,0,0,1-1.868-2.632l1.741-.637a4.041,4.041,0,0,0,1.528,2,7.966,7.966,0,0,0,2.547,1.274,9.982,9.982,0,0,0,2.93.425,9.538,9.538,0,0,0,3.312-.594,5.817,5.817,0,0,0,2.463-1.7,3.708,3.708,0,0,0,.934-2.547,3.3,3.3,0,0,0-.977-2.42,6.792,6.792,0,0,0-2.547-1.528,18.944,18.944,0,0,0-3.227-.892,27.177,27.177,0,0,1-4.373-1.146,7.185,7.185,0,0,1-3.057-2.038,5.177,5.177,0,0,1-1.146-3.524,5.561,5.561,0,0,1,1.189-3.567,7.937,7.937,0,0,1,3.142-2.335,10.744,10.744,0,0,1,4.2-.807,11.682,11.682,0,0,1,3.609.594,8.991,8.991,0,0,1,3.142,1.7,6.091,6.091,0,0,1,1.953,2.675l-1.783.637a4.392,4.392,0,0,0-1.486-2.038,7.967,7.967,0,0,0-2.547-1.274,9.984,9.984,0,0,0-2.93-.425,8.506,8.506,0,0,0-3.312.594,6.542,6.542,0,0,0-2.463,1.7,3.708,3.708,0,0,0-.934,2.547,3.552,3.552,0,0,0,.892,2.59,5.654,5.654,0,0,0,2.378,1.359,29.5,29.5,0,0,0,3.439.807,18.96,18.96,0,0,1,4.246,1.231,8.277,8.277,0,0,1,3.142,2.165,4.845,4.845,0,0,1,1.189,3.354,5.365,5.365,0,0,1-1.189,3.524,7.936,7.936,0,0,1-3.142,2.335A9.492,9.492,0,0,1,468.4,907.265Z" transform="translate(-410.067 -882.215)" fill="#fff"/>
        <path id="Path_9" data-name="Path 9" d="M521.3,907.259V883.1h1.868v24.159Z" transform="translate(-445.513 -882.676)" fill="#fff"/>
        <path id="Path_10" data-name="Path 10" d="M556.588,907.15a11.3,11.3,0,0,1-4.628-.977,11.459,11.459,0,0,1-3.779-2.717,12.322,12.322,0,0,1-2.547-3.991,13.268,13.268,0,0,1-.934-4.84,12.5,12.5,0,0,1,.934-4.883,12.692,12.692,0,0,1,2.59-3.991A12.271,12.271,0,0,1,552,883.076a11.254,11.254,0,0,1,4.586-.976,11.046,11.046,0,0,1,5.307,1.316,11.841,11.841,0,0,1,4.161,3.651l-1.656.892a9.864,9.864,0,0,0-3.524-2.972,9.557,9.557,0,0,0-4.288-1.061,9.364,9.364,0,0,0-3.906.849,9.554,9.554,0,0,0-3.184,2.293,10.542,10.542,0,0,0-2.165,3.4,11.48,11.48,0,0,0,0,8.237,10.548,10.548,0,0,0,5.35,5.689,9.363,9.363,0,0,0,3.906.849,8.9,8.9,0,0,0,3.354-.637,9.659,9.659,0,0,0,2.887-1.783,11.738,11.738,0,0,0,2.165-2.632,11.034,11.034,0,0,0,1.231-3.227h-7.175v-1.741h9.341a12.1,12.1,0,0,1-1.061,4.628,13,13,0,0,1-2.59,3.779A11.7,11.7,0,0,1,561,906.174,9.622,9.622,0,0,1,556.588,907.15Z" transform="translate(-458.977 -882.1)" fill="#fff"/>
        <path id="Path_11" data-name="Path 11" d="M618.9,907.259V883.1h2.038l13.5,20.762V883.1h1.868v24.159h-2L620.768,886.5v20.762Z" transform="translate(-501.674 -882.676)" fill="#fff"/>
      </g>
    </g>
    <g id="_x32_9_x2C__planet_x2C__space_x2C__moon_x2C__flag_x2C__mars" transform="translate(153.092 104.248)">
      <g id="Group_4" data-name="Group 4" transform="translate(0)">
        <path id="Path_12" data-name="Path 12" d="M229.145,232.921c17.663-8.194,36.386-18,54.643-28.532s36.089-21.866,52.011-33.075c20-14.054,37.066-27.895,48.232-39.783l-2.463-5.052-2.972-5.435-.085-.127A123.911,123.911,0,0,0,209.4,75.572l-.085.042A123.931,123.931,0,0,0,164.1,244.767l3.312,5.392,3.142,4.628c15.879-3.736,36.429-11.591,58.592-21.866m69.291-2.887c-37.7,21.781-74.514,38.34-105.635,48.529a124.714,124.714,0,0,0,66.277,27.47A123.86,123.86,0,0,0,393.585,162.654c-24.413,21.908-57.233,45.515-94.978,67.3ZM159.514,247.4a133.8,133.8,0,0,1-9.213-19.531,65.337,65.337,0,0,0-9.553,14.223c-1.868,4.2-2.25,7.557-.934,9.85,3.142,5.435,12.185,6.411,25.093,4.034L162.953,253l-.042-.085ZM370.87,100.538a125.548,125.548,0,0,1,12.143,17.493l.3.467,3.014,5.562,1.571,3.184c8.492-10.02,12.185-18.342,9.044-23.776-1.316-2.293-4.458-3.651-9.086-4.118A64.428,64.428,0,0,0,370.87,100.538ZM286.464,208.975c-18.384,10.615-37.236,20.465-55.068,28.744-46.916,21.738-87.294,32.226-96.167,16.856-2.208-3.864-1.868-8.831.722-14.648,2.335-5.222,6.539-11.251,12.4-17.832-.934-2.93-1.741-5.859-2.463-8.831-14.436,13.671-25.22,26.451-31.546,37.448-6.156,10.7-7.94,19.488-4.543,25.39,6.5,11.209,30.23,11.464,63.347,2.76,34.094-8.959,77.7-27.47,122.7-53.455l.127-.085c45.048-26.027,82.92-54.558,107.758-79.609,24.031-24.286,35.707-44.921,29.339-56.129l-.042-.085c-3.439-5.944-11.973-8.789-24.286-8.789-12.695-.042-29.169,2.93-48.19,8.577,2.208,2.123,4.331,4.288,6.411,6.581,8.576-1.741,15.879-2.378,21.526-1.826,6.369.637,10.869,2.845,13.12,6.708,8.874,15.412-20.38,45.133-62.668,74.853C322.808,186.982,304.848,198.361,286.464,208.975Z" transform="translate(-108.096 -59.024)" fill-rule="evenodd" fill="url(#linear-gradient)"/>
      </g>
    </g>
  </g>
</svg>
